<svg width="294.55133mm" height="74.625664mm" version="1.1" viewBox="0 0 1043.6858 264.42162" xmlns="http://www.w3.org/2000/svg">
<g transform="translate(-12.912477,-495.31367)"><g fill-opacity=".5372549">
<path transform="translate(-50.866144,1.5334685)" d="m70.865234 610.82812v70.00196 69.99804h29.999996v-69.99804h2e-3c0-14.31808 7.60392-27.49038 20-34.64844 12.39609-7.15805 27.6-7.15805 39.99609 0 12.39608 7.15806 20 20.33036 20 34.64844h2e-3v69.99804h30v-69.99804h2e-3c0-14.31808 7.60392-27.49038 20-34.64844 12.39609-7.15805 27.6-7.15805 39.99609 0 12.39608 7.15806 20 20.33036 20 34.64844h2e-3v69.99804h30v-70c-6.9e-4 -24.98614-13.36312-48.1348-35-60.6289-21.63744-12.49443-48.36256-12.49443-70 0-7.83452 4.524-14.57476 10.45035-19.99804 17.34961-5.42341-6.89967-12.16708-12.8254-20.00196-17.34961-21.63744-12.49443-48.36256-12.49443-70 0-1.72274 0.99479-3.38473 2.06403-5 3.18945v-12.56055h-29.999996z" color="#000000" color-rendering="auto" image-rendering="auto" shape-rendering="auto" solid-color="#000000" style="block-progression:tb;isolation:auto;mix-blend-mode:normal;text-decoration-color:#000000;text-decoration-line:none;text-decoration-style:solid;text-indent:0;text-transform:none;white-space:normal"/>
<path d="m299.92126 752.3622h30v-140h-30z"/>
<path d="m509.04084 612.36159v67.20899c-0.0396 0.95806-0.0645 1.91992-0.0645 2.88477h0.0645v69.90624h30.125v-73.04296c1.16572-14.90078 10.57717-27.9662 24.66992-33.7793 15.07382-6.21777 32.33148-2.79243 43.84961 8.67773l21.21484-21.30468c-20.07322-19.98962-50.32701-25.97415-76.52929-15.16602-4.71079 1.94315-9.1243 4.37042-13.20508 7.19922v-12.58399h-30.125z"/>
<path d="m710.07874 752.36133c-38.48279 0-70-31.51722-70-70 0-38.48279 31.51721-70.00195 70-70.00195s70.00195 31.51916 70.00195 70.00195c0 38.48278-31.51916 70-70.00195 70zm0-30.00195c22.26854 0 40-17.72952 40-39.99805 0-22.26854-17.73146-40-40-40s-39.99805 17.73146-39.99805 40c0 22.26853 17.72951 39.99805 39.99805 39.99805z" color="#000000" color-rendering="auto" image-rendering="auto" shape-rendering="auto" solid-color="#000000" style="block-progression:tb;isolation:auto;mix-blend-mode:normal;text-decoration-color:#000000;text-decoration-line:none;text-decoration-style:solid;text-indent:0;text-transform:none;white-space:normal"/>
<path d="m926.22255 502.41304c-24.63915-0.35103-49.4987 6.54125-71.15821 21.01367-49.50745 33.07984-68.82289 96.75981-46.03711 151.76954 22.78578 55.00974 81.47308 86.37781 139.8711 74.76172 58.39807-11.61609 100.61327-63.05556 100.61327-122.59766v-15h-124.99999v30h93.80269c-6.1439 38.75895-35.725 70.30989-75.26949 78.17578-44.54162 8.85987-88.92345-14.86302-106.30273-56.82031-17.37927-41.95728-2.77033-90.1149 34.99023-115.3457 37.76055-25.23081 87.84236-20.29826 119.95509 11.81445l21.2129-21.21289c-23.6828-23.68273-54.99884-36.10727-86.67775-36.5586z" color="#000000" color-rendering="auto" image-rendering="auto" shape-rendering="auto" solid-color="#000000" style="block-progression:tb;isolation:auto;mix-blend-mode:normal;text-decoration-color:#000000;text-decoration-line:none;text-decoration-style:solid;text-indent:0;text-transform:none;white-space:normal"/>
</g><g transform="translate(28.396791,319.03642)" fill="none" stroke-width="30">
<path d="m437.1019 402.53183a55 55 0 0 1-66.39087 8.74053" stroke="#e91e63"/>
<path d="m370.71103 411.27236a55 55 0 0 1-25.62592-61.86644" stroke="#ff9800"/>
<path d="m345.08511 349.40592a55 55 0 0 1 25.62592-33.39636" stroke="#cddc39"/>
<path d="m370.71103 316.00956a55 55 0 0 1 66.39087 8.74053" stroke="#009688"/>
</g></g></svg>
